<?xml version="1.0" standalone="no"?>
<!DOCTYPE svg PUBLIC "-//W3C//DTD SVG 20010904//EN"
 "http://www.w3.org/TR/2001/REC-SVG-20010904/DTD/svg10.dtd">
<svg version="1.0" xmlns="http://www.w3.org/2000/svg"
 width="250.000000pt" height="188.000000pt" viewBox="0 0 250.000000 188.000000"
 preserveAspectRatio="xMidYMid meet">
<metadata>
Created by potrace 1.10, written by Peter Selinger 2001-2011
</metadata>
<g transform="translate(0.000000,188.000000) scale(0.050000,-0.050000)"
fill="#ff0000" stroke="none">
<path d="M2285 3127 c-40 -9 -45 -22 -45 -117 0 -106 -1 -107 -75 -131 -41
-13 -84 -32 -94 -41 -38 -36 -104 -17 -148 42 -66 89 -107 76 -285 -94 -217
-208 -218 -211 -120 -299 l79 -71 -41 -93 c-70 -159 -65 -153 -156 -147 -132
8 -140 -7 -140 -283 1 -288 4 -297 126 -290 109 5 97 13 151 -111 57 -128 55
-138 -30 -206 -91 -73 -84 -89 125 -284 225 -210 218 -208 316 -72 28 39 30
39 135 2 139 -49 142 -52 145 -166 l2 -96 147 -17 c81 -10 206 -10 280 0 l133
17 0 98 c0 67 9 102 30 111 17 8 71 34 120 58 119 57 129 55 180 -27 63 -101
93 -90 286 107 196 200 209 238 104 303 -79 49 -84 69 -37 163 19 37 40 81 48
97 10 21 46 30 121 30 l108 0 17 147 c10 81 10 206 0 280 l-17 133 -108 0
c-113 0 -111 -2 -171 128 -45 99 -39 127 39 177 108 70 103 83 -123 309 -176
177 -215 189 -282 86 -51 -78 -66 -83 -142 -40 -29 16 -79 39 -111 50 -54 20
-57 26 -46 106 18 132 8 138 -249 145 -125 3 -247 2 -272 -4z m426 -458 c727
-188 836 -1195 163 -1510 -665 -311 -1357 276 -1148 973 120 404 564 646 985
537z"/>
<path d="M2148 2424 c-11 -8 -27 -30 -34 -49 -9 -25 -35 -35 -92 -35 -104 0
-142 -40 -142 -151 l0 -89 111 0 c82 0 113 -8 122 -31 19 -50 -28 -79 -129
-79 l-94 0 -6 -114 -6 -114 116 -6 c156 -8 178 -84 26 -89 -49 -2 -101 -5
-115 -5 -15 -1 -25 -32 -25 -80 0 -125 14 -142 110 -142 71 0 94 -10 127 -55
l40 -55 343 0 344 0 43 54 c33 41 64 55 133 60 89 6 89 7 104 94 20 115 -2
140 -110 127 -103 -11 -158 32 -112 87 19 24 49 30 112 23 106 -12 130 13 122
129 l-6 86 -113 6 c-82 4 -117 15 -126 38 -19 51 21 74 122 69 110 -6 126 12
112 125 -13 98 -29 111 -140 112 -47 0 -85 8 -85 19 0 66 -59 78 -395 78 -185
1 -345 -5 -357 -13z m162 -99 c11 -8 29 -41 40 -73 56 -164 208 -168 285 -7
36 75 56 95 94 95 75 0 78 -20 77 -469 l0 -421 -303 -6 -303 -5 0 437 c0 241
6 443 13 451 18 17 72 16 97 -2z m246 -30 c-7 -54 -78 -71 -114 -27 -35 42
-10 72 61 72 51 0 59 -7 53 -45z"/>
</g>
</svg>
